<!-- Made using https://formito.com/tools/favicon - font was Kenia -->
<svg xmlns="http://www.w3.org/2000/svg" viewBox="0 0 100 100">
  <rect width="100" height="100" rx="25" class="bg"/>
  <path class="mark" d="M35.47 32.31L35.47 41.04Q33.66 41.04 31.55 40.50Q29.43 39.96 27.63 38.75Q25.84 37.53 24.62 35.46Q23.41 33.39 23.41 30.24L23.41 30.24L23.41 28.63Q23.41 25.83 24.21 23.85Q25.02 21.88 26.42 20.61Q27.81 19.36 29.57 18.81Q31.32 18.27 33.22 18.27L33.22 18.27Q37.53 18.27 39.52 20.79Q41.49 23.31 41.49 26.73L41.49 26.73L41.49 27.54Q41.49 27.90 41.41 28.35L41.41 28.35Q40.33 27.00 38.70 27.00L38.70 27.00Q37.45 27.09 36.81 27.68Q36.19 28.26 35.87 29.03Q35.55 29.79 35.51 30.70Q35.47 31.59 35.47 32.31L35.47 32.31ZM43.20 41.94L43.20 18.27L44.47 18.27Q49.33 18.27 52.25 20.84Q55.17 23.40 55.17 29.34L55.17 29.34L55.17 32.67Q55.17 37.63 52.34 39.83Q49.50 42.03 44.91 42.03L44.91 42.03Q44.47 42.03 44.06 41.99Q43.66 41.94 43.20 41.94L43.20 41.94ZM42.75 43.11L42.75 62.91L41.58 62.91Q36.72 62.91 33.71 60.39Q30.70 57.88 30.70 52.74L30.70 52.74Q30.70 49.95 31.77 48.06Q32.85 46.17 34.48 45.09Q36.09 44.01 38.03 43.56Q39.97 43.11 41.67 43.11L41.67 43.11L42.75 43.11ZM32.67 77.58L32.67 77.58Q32.67 74.79 34.56 72.91Q36.45 71.02 39.06 71.02L39.06 71.02Q41.86 71.02 43.74 72.91Q45.63 74.79 45.63 77.58L45.63 77.58Q45.63 80.19 43.74 82.08Q41.86 83.97 39.06 83.97L39.06 83.97Q36.45 83.97 34.56 82.08Q32.67 80.19 32.67 77.58ZM75.34 26.73L75.34 62.64L74.53 62.64Q72.45 62.64 70.47 62.02Q68.50 61.38 66.88 60.13Q65.25 58.86 64.27 56.88Q63.27 54.91 63.27 52.20L63.27 52.20L63.27 15.94Q65.70 15.94 67.86 16.70Q70.03 17.47 71.69 18.86Q73.36 20.25 74.34 22.23Q75.34 24.21 75.34 26.73L75.34 26.73ZM63.63 77.67L63.63 77.67Q63.63 74.88 65.53 72.99Q67.41 71.10 70.03 71.10L70.03 71.10Q72.81 71.10 74.70 72.99Q76.59 74.88 76.59 77.67L76.59 77.67Q76.59 80.28 74.70 82.17Q72.81 84.06 70.03 84.06L70.03 84.06Q67.41 84.06 65.53 82.17Q63.63 80.28 63.63 77.67Z"/>
  <style>
    :root {
      --accent: oklch(0.55 0.16 350);
      --accent-alt: oklch(0.76 0.055 157);
    }
    @media (prefers-color-scheme: dark) {
      :root {
        --accent: oklch(0.78 0.14 350);
        --accent-alt: oklch(0.83 0.065 157);
      }
    }
    .bg {
      fill: #101010;
      animation: brighten 8s ease-in-out infinite alternate;
    }
    .mark {
      fill: var(--accent);
      animation: colorCycle 6s ease-in-out infinite alternate;
    }
    @keyframes brighten {
      from { fill: #101010; }
      to   { fill: #303030; }
    }
    @keyframes colorCycle {
      from { fill: var(--accent); }
      to   { fill: var(--accent-alt); }
    }
  </style>
</svg>
